<svg xmlns="http://www.w3.org/2000/svg" viewBox="0 0 800 800" width="800" height="800">
  <defs>
    <linearGradient id="bg" x1="0" y1="0" x2="1" y2="1">
      <stop offset="0" stop-color="#16161c"/>
      <stop offset="1" stop-color="#26262e"/>
    </linearGradient>
    <radialGradient id="glow" cx="0.5" cy="0.4" r="0.7">
      <stop offset="0" stop-color="#ffffff" stop-opacity="0.18"/>
      <stop offset="1" stop-color="#ffffff" stop-opacity="0"/>
    </radialGradient>
  </defs>
  <rect width="800" height="800" fill="url(#bg)"/>
  <rect width="800" height="800" fill="url(#glow)"/>
  <g fill="none" stroke="#ffffff" stroke-opacity="0.08" stroke-width="1">
    <circle cx="400" cy="400" r="300"/>
    <circle cx="400" cy="400" r="220"/>
  </g>
  <g transform="translate(400 420)">
    <path d="M-160 -40 Q-160 -120 0 -120 Q160 -120 160 -40 L150 120 Q150 150 -150 150 Q-150 120 -160 120 Z" fill="#7a4b2b"/>
    <path d="M-160 -40 Q-160 -120 0 -120 Q160 -120 160 -40 L150 120 Q150 150 -150 150 Q-150 120 -160 120 Z" fill="none" stroke="#111" stroke-opacity="0.2"/>
    <path d="M-90 -110 Q-90 -180 0 -180 Q90 -180 90 -110" fill="none" stroke="#3a2415" stroke-width="14"/>
    <rect x="-40" y="40" width="80" height="40" rx="8" fill="#c9a24b"/>
    <rect x="-160" y="-40" width="320" height="14" fill="#5a3620"/>
  </g>
</svg>