<svg xmlns="http://www.w3.org/2000/svg" viewBox="0 0 800 800" width="800" height="800">
  <defs>
    <linearGradient id="bg" x1="0" y1="0" x2="1" y2="1">
      <stop offset="0" stop-color="#16161c"/>
      <stop offset="1" stop-color="#26262e"/>
    </linearGradient>
    <radialGradient id="glow" cx="0.5" cy="0.4" r="0.7">
      <stop offset="0" stop-color="#ffffff" stop-opacity="0.18"/>
      <stop offset="1" stop-color="#ffffff" stop-opacity="0"/>
    </radialGradient>
  </defs>
  <rect width="800" height="800" fill="url(#bg)"/>
  <rect width="800" height="800" fill="url(#glow)"/>
  <g fill="none" stroke="#ffffff" stroke-opacity="0.08" stroke-width="1">
    <circle cx="400" cy="400" r="300"/>
    <circle cx="400" cy="400" r="220"/>
  </g>
  <g transform="translate(400 400)">
    <path d="M-120 -160 L-40 -200 L0 -150 L40 -200 L120 -160 L150 0 L100 20 L100 180 L-100 180 L-100 20 L-150 0 Z" fill="#2b2b33"/>
    <path d="M0 -150 L0 180" stroke="#111" stroke-width="6"/>
    <path d="M-120 -160 L-40 -200 L0 -150 L40 -200 L120 -160" fill="none" stroke="#c9a24b" stroke-width="6"/>
    <rect x="-70" y="-40" width="40" height="14" rx="6" fill="#c9a24b"/>
    <rect x="30" y="-40" width="40" height="14" rx="6" fill="#c9a24b"/>
  </g>
</svg>